<?xml version="1.0" encoding="UTF-8"?>
<svg id="SVGDoc" width="74" height="85" xmlns="http://www.w3.org/2000/svg" version="1.1" xmlns:xlink="http://www.w3.org/1999/xlink" xmlns:avocode="https://avocode.com/" viewBox="0 0 74 85"><defs></defs><desc>Generated with Avocode.</desc><g><g><title>001-manager</title><g><title>Path 79</title><path d="M44.91566,29.88281c0.91632,0 1.66016,-0.74384 1.66016,-1.66016c0,-0.91632 -0.74384,-1.66016 -1.66016,-1.66016c-0.91827,0 -1.66016,0.74384 -1.66016,1.66016c0,0.91632 0.74188,1.66016 1.66016,1.66016z" fill="#32325f" fill-opacity="1"></path></g><g><title>Path 80</title><path d="M28.3141,29.88281c0.91632,0 1.66016,-0.74384 1.66016,-1.66016c0,-0.91632 -0.74384,-1.66016 -1.66016,-1.66016c-0.91827,0 -1.66016,0.74384 -1.66016,1.66016c0,0.91632 0.74188,1.66016 1.66016,1.66016z" fill="#32325f" fill-opacity="1"></path></g><g><title>Path 81</title><path d="M32.17656,41.29379c1.39362,0.65694 2.88712,0.99025 4.43767,0.99025c1.51683,0 2.98116,-0.3197 4.35272,-0.95004c0.83333,-0.38327 1.19777,-1.36899 0.81517,-2.2023c-0.38327,-0.83267 -1.36899,-1.19778 -2.2023,-0.81451c-0.9332,0.42865 -1.93124,0.64655 -2.96559,0.64655c-1.05769,0 -2.07454,-0.22632 -3.022,-0.67313c-0.82942,-0.39105 -1.81905,-0.03568 -2.20943,0.79376c-0.39105,0.82942 -0.03568,1.81839 0.79376,2.20943z" fill="#32325f" fill-opacity="1"></path></g><g><title>Path 82</title><path d="M69.90749,81.67969h-24.47952l-2.09724,-9.20284l1.44421,-4.16985l1.08299,0.54214c0.40855,0.20428 0.88001,0.22957 1.30283,0.07782c0.42671,-0.15305 0.77236,-0.47405 0.95654,-0.88779l6.21132,-13.95634c7.26513,0.53761 15.57888,6.44218 15.57888,13.28125zM3.32031,67.36408c0,-6.83907 8.31375,-12.74429 15.57888,-13.28125l6.21132,13.95634c0.18417,0.41374 0.52982,0.73475 0.95654,0.88779c0.42671,0.15305 0.89687,0.12451 1.30283,-0.07782l1.18286,-0.59208l1.34693,4.19449l-2.16469,9.22813h-24.41467zM26.26678,48.94867l7.97199,12.75337l-6.8008,3.40073l-5.47009,-12.29229zM18.42773,25.38158l4.61082,-6.75671c3.69385,3.14198 8.05889,4.61731 13.57632,4.61731c5.52326,0 9.89155,-1.47858 13.58604,-4.62704l4.75025,6.84036v3.76324c0,9.94213 -8.12634,18.26172 -18.32008,18.26172c-10.16068,0 -18.20335,-8.29365 -18.20335,-18.26172zM39.95141,3.32031c8.27095,0 14.99977,6.70223 14.99977,14.94141v1.37222l-3.11733,-4.48891c-0.2821,-0.40661 -0.73151,-0.66601 -1.22501,-0.70751c-0.49416,-0.0415 -0.97923,0.13943 -1.32553,0.49351c-3.37479,3.45131 -7.28199,4.99084 -12.66842,4.99084c-5.38578,0 -9.29363,-1.53954 -12.67101,-4.99084c-0.3476,-0.35603 -0.83721,-0.53631 -1.33202,-0.49286c-0.49545,0.04345 -0.94551,0.30674 -1.22566,0.71789l-2.95845,4.33521v-1.22955c0,-8.23917 6.67629,-14.94141 14.88304,-14.94141zM38.99033,61.70204l7.9707,-12.75402l4.2989,3.86246l-5.47009,12.29229zM36.61423,59.23775l-5.76904,-9.22878c1.87351,0.52074 3.8203,0.79117 5.7859,0.79117c1.94679,0 3.87932,-0.26524 5.7431,-0.77755zM40.4248,70.72266h-7.59327l-1.27365,-3.96816l5.05699,-2.5285l5.16529,2.58362zM32.93659,74.04297h7.34554l1.74057,7.63672h-10.87727zM73.22781,67.36408c0,-9.12891 -10.39673,-16.28834 -19.3084,-16.6275l-4.54662,-4.08489c5.53753,-4.04015 8.8987,-10.53291 8.8987,-17.43294v-10.95703c0,-10.06924 -8.21842,-18.26172 -18.32008,-18.26172h-6.64062c-10.08804,0 -18.20335,8.1633 -18.20335,18.26172v10.95703c0,6.88835 3.31642,13.3688 8.78197,17.40181l-4.58099,4.11602c-8.89221,0.33852 -19.3084,7.47978 -19.3084,16.6275v15.97576c0,0.91698 0.74318,1.66016 1.66016,1.66016h69.90749c0.91698,0 1.66016,-0.74318 1.66016,-1.66016z" fill="#32325f" fill-opacity="1"></path></g><g><title>Path 83</title><path d="M58.19691,74.04297v0h-6.64062c-0.91699,0 -1.66016,0.74316 -1.66016,1.66016c0,0.91699 0.74316,1.66016 1.66016,1.66016h6.64063c0.91696,0 1.66016,-0.74316 1.66016,-1.66016c0,-0.91699 -0.74319,-1.66016 -1.66016,-1.66016z" fill="#32325f" fill-opacity="1"></path></g><g><title>Path 84</title><path d="M64.74609,74.04297c0.91632,0 1.66016,0.74384 1.66016,1.66016c0,0.91632 -0.74384,1.66016 -1.66016,1.66016c-0.91632,0 -1.66016,-0.74384 -1.66016,-1.66016c0,-0.91632 0.74384,-1.66016 1.66016,-1.66016z" fill="#32325f" fill-opacity="1"></path></g></g></g></svg>