<?xml version="1.0" encoding="UTF-8"?>
<svg id="SVGDoc" width="85" height="85" xmlns="http://www.w3.org/2000/svg" version="1.1" xmlns:xlink="http://www.w3.org/1999/xlink" xmlns:avocode="https://avocode.com/" viewBox="0 0 85 85"><defs></defs><desc>Generated with Avocode.</desc><g><g><title>002-hand</title><g><title>Path 85</title><path d="M39.10121,57.65152c0.64784,-0.64914 0.64784,-1.69971 0,-2.34885c-0.6485,-0.64722 -1.69907,-0.64722 -2.34822,0c-0.6472,0.64914 -0.6472,1.69971 0,2.34885c0.64915,0.64719 1.69972,0.64719 2.34822,0z" fill="#000000" fill-opacity="1"></path></g><g><title>Path 86</title><path d="M64.43544,18.25653c0,8.23658 -6.70093,14.93752 -14.9375,14.93752c-8.23659,0 -14.93753,-6.70094 -14.93753,-14.93752c0,-8.23593 6.70094,-14.93687 14.93753,-14.93687c8.23657,0 14.9375,6.70094 14.9375,14.93687zM31.24141,18.25653c0,10.06664 8.18988,18.25718 18.25653,18.25718c10.06664,0 18.25653,-8.19054 18.25653,-18.25718c0,-10.06664 -8.1899,-18.25653 -18.25653,-18.25653c-10.06665,0 -18.25653,8.18989 -18.25653,18.25653z" fill="#32325f" fill-opacity="1"></path></g><g><title>Path 87</title><path d="M10.76766,57.81754c0.54733,-0.54733 1.38779,-0.6459 2.05509,-0.23346c0.28728,0.17509 -0.53761,-0.57587 14.37527,14.31625c0.66341,0.66342 0.62775,1.72046 0.00908,2.33914l-6.85982,6.758l-16.30779,-16.43231zM31.57279,46.80344c2.54211,0 4.99992,0.51166 7.30663,1.52072c0.21011,0.0921 0.43644,0.13943 0.66536,0.13943h18.84731c1.79958,0 3.31966,1.46756 3.31966,3.31902c0,1.8307 -1.48895,3.31966 -3.31966,3.31966h-13.5413c-0.91633,0 -1.65951,0.74319 -1.65951,1.65952c0,0.91698 0.74318,1.65952 1.65951,1.65952h13.5413c3.66077,0 6.63868,-2.97791 6.63868,-6.63869c0,-0.29182 -0.02075,-0.58105 -0.05836,-0.86769c9.47392,-9.73849 10.80982,-11.10684 10.86689,-11.17493c1.18286,-1.39621 3.2827,-1.57326 4.67957,-0.39558c1.39816,1.18221 1.5752,3.28075 0.3891,4.68475l-14.88628,17.7961c-2.17377,2.08687 -5.02781,3.23535 -8.04462,3.23535h-22.06387c-2.16209,0 -4.20876,0.82684 -5.76126,2.32681l-1.41048,1.36121l-13.0024,-13.00174c3.03886,-5.70096 8.74111,-8.94345 15.83374,-8.94345zM19.15599,84.50909c0.64331,0.6485 1.69064,0.65561 2.34238,0.01361l8.04657,-7.92725c1.36703,-1.36703 1.78272,-3.39099 1.18156,-5.15038l1.73084,-1.66924c0.93189,-0.90012 2.15885,-1.39621 3.45585,-1.39621h22.06387c3.91434,0 7.61402,-1.50323 10.41878,-4.23276c0.11543,-0.11218 -0.87612,1.05576 15.0523,-17.98157c2.36248,-2.79503 2.00905,-6.99211 -0.78857,-9.35718c-2.78011,-2.34303 -6.94477,-2.00647 -9.31374,0.74057l-9.79362,10.06601c-1.23669,-1.52203 -3.12252,-2.47079 -5.1601,-2.47079h-18.5075c-2.63355,-1.10179 -5.42793,-1.6595 -8.31116,-1.6595c-7.9921,0 -14.97059,3.69125 -18.71567,10.61203c-1.5778,-0.29897 -3.24184,0.17833 -4.43897,1.37547l-7.89547,7.91881c-0.64461,0.64656 -0.6459,1.69258 -0.00259,2.34108z" fill="#32325f" fill-opacity="1"></path></g><g><title>Path 88</title><path d="M47.50639,8.29884v0v1.94485c-1.93188,0.68481 -3.31967,2.52979 -3.31967,4.69383c0,2.74509 2.23343,4.97917 4.97919,4.97917c0.91504,0 1.65948,0.74448 1.65948,1.65951c0,0.91503 -0.74445,1.65951 -1.65948,1.65951c-0.7088,0 -1.4747,-0.44552 -2.15497,-1.25549c-0.59015,-0.70168 -1.63681,-0.79182 -2.3385,-0.20233c-0.70166,0.59013 -0.79245,1.63681 -0.20233,2.33849c0.88715,1.05511 1.9306,1.7905 3.03629,2.16145v1.93707c0,0.91698 0.74319,1.65951 1.65952,1.65951c0.91632,0 1.65948,-0.74253 1.65948,-1.65951v-1.94485c1.93188,-0.68546 3.31967,-2.53044 3.31967,-4.69383c0,-2.74574 -2.23343,-4.97917 -4.97916,-4.97917c-0.91504,0 -1.65952,-0.74448 -1.65952,-1.65951c0,-0.91503 0.74448,-1.66016 1.65952,-1.66016c0.5882,0 1.2088,0.30025 1.79504,0.86769c0.65887,0.63747 1.70944,0.61996 2.34692,-0.03826c0.63745,-0.65887 0.61993,-1.70944 -0.03827,-2.34692c-0.84241,-0.81516 -1.68546,-1.27625 -2.44421,-1.52786v-1.93317c0,-0.91698 -0.74316,-1.66016 -1.65948,-1.66016c-0.91632,0 -1.65952,0.74318 -1.65952,1.66016z" fill="#000000" fill-opacity="1"></path></g></g></g></svg>