<?xml version="1.0" encoding="UTF-8"?>
<svg id="SVGDoc" width="86" height="85" xmlns="http://www.w3.org/2000/svg" version="1.1" xmlns:xlink="http://www.w3.org/1999/xlink" xmlns:avocode="https://avocode.com/" viewBox="0 0 86 85"><defs></defs><desc>Generated with Avocode.</desc><g><g><title>003-wishlist</title><g><title>Path 89</title><path d="M35.5625,51.79688c-0.91632,0 -1.66016,0.74384 -1.66016,1.66016c0,0.91632 0.74384,1.66016 1.66016,1.66016c0.91632,0 1.66016,-0.74384 1.66016,-1.66016c0,-0.91632 -0.74384,-1.66016 -1.66016,-1.66016z" fill="#32325f" fill-opacity="1"></path></g><g><title>Path 90</title><path d="M35.5625,61.75781c-0.91632,0 -1.66016,0.74384 -1.66016,1.66016c0,0.91632 0.74384,1.66016 1.66016,1.66016c0.91632,0 1.66016,-0.74384 1.66016,-1.66016c0,-0.91632 -0.74384,-1.66016 -1.66016,-1.66016z" fill="#32325f" fill-opacity="1"></path></g><g><title>Path 91</title><path d="M64.11719,51.79688h-21.91406c-0.91698,0 -1.66016,0.74316 -1.66016,1.66016c0,0.91699 0.74318,1.66016 1.66016,1.66016h21.91406c0.91699,0 1.66016,-0.74316 1.66016,-1.66016c0,-0.91699 -0.74316,-1.66016 -1.66016,-1.66016z" fill="#32325f" fill-opacity="1"></path></g><g><title>Path 92</title><path d="M64.11719,61.75781h-21.91406c-0.91698,0 -1.66016,0.74316 -1.66016,1.66016c0,0.91699 0.74318,1.66016 1.66016,1.66016h21.91406c0.91699,0 1.66016,-0.74316 1.66016,-1.66016c0,-0.91699 -0.74316,-1.66016 -1.66016,-1.66016z" fill="#32325f" fill-opacity="1"></path></g><g><title>Path 93</title><path d="M10.58298,68.39844c-0.29312,3.16338 -1.41632,6.23661 -3.24314,8.83904c-1.82682,-2.60242 -2.95002,-5.67566 -3.24314,-8.83904zM7.33984,3.32031c0.91568,0 1.66016,0.74448 1.66016,1.66016v1.87286c-0.53761,-0.13943 -1.09531,-0.21271 -1.66016,-0.21271c-0.56484,0 -1.12255,0.07328 -1.66016,0.21206v-1.87222c0,-0.91568 0.74448,-1.66016 1.66016,-1.66016zM4.01953,16.60156v-3.32031c0,-1.82293 1.48506,-3.32031 3.32031,-3.32031c1.80412,0 3.32031,1.46301 3.32031,3.32031v3.32031zM10.66016,65.07813h-6.64062v-45.15625h6.64063zM5.67969,80.5727v2.76714c0,0.91698 0.74318,1.66016 1.66016,1.66016c0.91698,0 1.66016,-0.74318 1.66016,-1.66016v-2.76714l0.66406,-0.8852c2.78336,-3.71071 4.31641,-8.30986 4.31641,-12.94922v-46.81641h1.66016c0.91568,0 1.66016,0.74448 1.66016,1.66016v15.27344c0,0.91698 0.74318,1.66016 1.66016,1.66016c0.91698,0 1.66016,-0.74318 1.66016,-1.66016v-15.27344c0,-2.74639 -2.23408,-4.98047 -4.98047,-4.98047h-1.66016v-3.32031c0,-1.63292 -0.58689,-3.17505 -1.66016,-4.38904v-3.91174c0,-2.74639 -2.23408,-4.98047 -4.98047,-4.98047c-2.74639,0 -4.98047,2.23408 -4.98047,4.98047v3.91304c-1.06224,1.20426 -1.66016,2.7639 -1.66016,4.38774v53.45703c0,4.64001 1.53305,9.23851 4.31641,12.94922z" fill="#32325f" fill-opacity="1"></path></g><g><title>Path 94</title><path d="M82.37891,25.23438h-6.64062v-6.64062c0,-1.8573 1.50841,-3.32031 3.32031,-3.32031c1.83072,0 3.32031,1.4896 3.32031,3.32031zM72.41797,18.59375v57.75009c0,2.74963 -1.99283,5.33585 -4.98047,5.33585c-2.7464,0 -4.98047,-2.23407 -4.98047,-4.98047v-3.32031c0,-0.91698 -0.74318,-1.66016 -1.66016,-1.66016h-33.53516v-51.46484c0,-2.74639 2.23408,-4.99733 4.98047,-4.99733h41.06357c-0.56873,0.98637 -0.88779,2.14069 -0.88779,3.33717zM28.92188,81.67969c-4.00837,0 -7.36305,-2.85663 -8.13412,-6.64062h38.34896v1.66016c0,1.86703 0.61996,3.59204 1.66405,4.98047zM85.69922,26.89453v-8.30078c0,-3.66142 -2.9792,-6.64062 -6.64062,-6.64062c-0.37549,0 -46.81641,0 -46.81641,0c-4.5771,0 -8.30078,3.72368 -8.30078,8.30078v51.46484h-4.98047c-0.91698,0 -1.66016,0.74318 -1.66016,1.66016c0,6.40781 5.21328,11.62109 11.62109,11.62109h38.51563c4.85919,0 8.30078,-4.13806 8.30078,-8.65616v-47.78915h8.30078c0.91698,0 1.66016,-0.74318 1.66016,-1.66016z" fill="#32325f" fill-opacity="1"></path></g><g><title>Path 95</title><path d="M44.05394,25.23438c3.03108,0 4.10565,3.61667 4.14975,3.77103c0.20102,0.71204 0.85017,1.20166 1.59076,1.20555h0.00842c0.73994,0 1.39169,-0.49416 1.59662,-1.20555c0.0441,-0.15436 1.11865,-3.77103 4.1478,-3.77103c2.33005,0 4.08748,1.9682 4.08748,4.5784c0,3.18866 -2.98244,5.70549 -7.924,9.87598c-0.61932,0.52271 -1.2529,1.05707 -1.90918,1.61801c-0.65694,-0.56094 -1.29053,-1.09531 -1.90984,-1.61865c-4.9409,-4.16985 -7.92336,-6.68668 -7.92336,-9.87534c0,-2.6102 1.75677,-4.5784 4.08554,-4.5784zM45.75041,42.22568c0.94617,0.79895 1.92538,1.62515 2.96429,2.52527c0.31192,0.27042 0.69907,0.4053 1.08688,0.4053c0.38779,0 0.7756,-0.13489 1.08752,-0.4053c1.03824,-0.90012 2.01683,-1.72632 2.96364,-2.52461c5.28462,-4.45973 9.10233,-7.68211 9.10233,-12.41356c0,-4.42924 -3.25352,-7.89871 -7.40715,-7.89871c-2.79309,0 -4.61472,1.49738 -5.74634,3.02071c-1.13164,-1.52333 -2.95392,-3.02071 -5.74765,-3.02071c-4.15298,0 -7.40585,3.46947 -7.40585,7.89871c0,4.73145 3.81836,7.95319 9.10233,12.4129z" fill="#32325f" fill-opacity="1"></path></g></g></g></svg>