<?xml version="1.0" encoding="UTF-8"?>
<svg id="SVGDoc" width="86" height="85" xmlns="http://www.w3.org/2000/svg" version="1.1" xmlns:xlink="http://www.w3.org/1999/xlink" xmlns:avocode="https://avocode.com/" viewBox="0 0 86 85"><defs></defs><desc>Generated with Avocode.</desc><g><g><title>004-box</title><g><title>Path 96</title><path d="M42.85941,58.4375c-0.91632,0 -1.66016,0.74384 -1.66016,1.66016c0,0.91632 0.74384,1.66016 1.66016,1.66016c0.91632,0 1.66016,-0.74384 1.66016,-1.66016c0,-0.91632 -0.74384,-1.66016 -1.66016,-1.66016z" fill="#000000" fill-opacity="1"></path></g><g><title>Path 97</title><path d="M69.44785,38.33275l-16.8227,-8.41167l1.52332,-2.0311c0.37678,-0.50259 0.43774,-1.17573 0.15629,-1.73862c-0.2808,-0.56225 -0.85602,-0.91698 -1.48441,-0.91698h-2.92862l6.2619,-3.1316l23.66566,11.40579zM56.15428,58.24814l-9.58286,-4.79111l22.87643,-11.43822l10.37209,4.82418zM67.76175,69.03202l-23.24219,11.62109v-13.91483c0,-0.91698 -0.74318,-1.66016 -1.66016,-1.66016c-0.91698,0 -1.66016,0.74318 -1.66016,1.66016v13.91483l-23.24219,-11.62109v-12.69241l10.89996,5.25349c0.46303,0.22308 1.00323,0.21919 1.46366,-0.01038l12.53872,-6.26968l12.53872,6.26968c0.45979,0.22957 0.99998,0.23346 1.46301,0.01038l10.90061,-5.25349zM16.27097,42.01881l22.87644,11.43822l-9.58286,4.79111l-23.66566,-11.40514zM29.56454,22.10342l6.26255,3.13095h-2.92862c-0.62905,0 -1.20362,0.35538 -1.48506,0.91763c-0.2808,0.56225 -0.22049,1.23539 0.15694,1.73862l1.52268,2.0311l-16.82205,8.41103l-10.37209,-4.82418zM42.85941,51.60103l-22.8505,-11.42525l15.10872,-7.55436l6.41365,8.55045c0.31387,0.41828 0.80544,0.66406 1.32813,0.66406c0.52269,0 1.01425,-0.24578 1.32813,-0.66406l6.413,-8.55045l15.10872,7.55436zM39.53909,3.32031h6.64063v23.57422c0,0.91633 0.74318,1.66016 1.66016,1.66016h1.6608l-6.64127,8.8546l-5.9169,-7.88834l-0.72437,-0.96626h1.6608c0.91698,0 1.66016,-0.74383 1.66016,-1.66016zM85.35941,33.54618c0.00389,-0.64137 -0.36186,-1.22826 -0.93967,-1.50646l-27.55859,-13.28125c-0.46303,-0.22308 -1.00323,-0.21919 -1.46301,0.01038l-5.89809,2.94937v-20.05806c0,-0.91698 -0.74318,-1.66016 -1.66016,-1.66016h-9.96094c-0.91698,0 -1.66016,0.74318 -1.66016,1.66016v20.05806l-5.8981,-2.94937c-0.45979,-0.22957 -1.00063,-0.23346 -1.46301,-0.01038l-27.55859,13.28125c-0.57846,0.27885 -0.94357,0.8651 -0.93967,1.50646c0.00454,0.64201 0.37807,1.22372 0.96043,1.49414l11.04069,5.13546l-11.04069,5.13546c-0.5817,0.27042 -0.95589,0.85213 -0.96043,1.49349c-0.00389,0.64201 0.36121,1.22826 0.93967,1.50711l13.33767,6.42792v15.31883c0,0.6284 0.35538,1.20361 0.91763,1.48441l26.5625,13.28125c0.01556,0.00778 0.03178,0.01297 0.04734,0.0201c0.02529,0.01232 0.05058,0.0227 0.07652,0.03307c0.0415,0.01686 0.08366,0.03178 0.12581,0.04475c0.02529,0.00778 0.04993,0.01621 0.07587,0.0227c0.04604,0.01167 0.09209,0.02075 0.13878,0.02853c0.02335,0.00389 0.04604,0.00908 0.06939,0.01232c0.0629,0.00778 0.12516,0.01232 0.18806,0.01297c0.00778,0 0.01427,0.0013 0.02205,0.0013c0.07069,0 0.14137,-0.00584 0.21206,-0.01492c0.01751,-0.00195 0.03502,-0.00584 0.05253,-0.00908c0.05188,-0.00843 0.10376,-0.01881 0.15499,-0.03242c0.02335,-0.00584 0.04669,-0.01362 0.07004,-0.02075c0.04475,-0.01362 0.0882,-0.02918 0.13229,-0.04669c0.02529,-0.01038 0.05058,-0.02075 0.07523,-0.03242c0.01492,-0.00713 0.02983,-0.01167 0.0441,-0.01881l26.5625,-13.28125c0.56225,-0.28145 0.91763,-0.85602 0.91763,-1.48506v-15.31818l13.33767,-6.42792c0.57846,-0.27885 0.94421,-0.86575 0.93967,-1.50711c-0.00454,-0.64201 -0.37807,-1.22372 -0.96043,-1.49414l-11.04069,-5.13546l11.04069,-5.13546c0.58235,-0.27042 0.95589,-0.85213 0.96043,-1.49414z" fill="#32325f" fill-opacity="1"></path></g></g></g></svg>