<?xml version="1.0" encoding="UTF-8"?>
<svg id="SVGDoc" width="19" height="19" xmlns="http://www.w3.org/2000/svg" version="1.1" xmlns:xlink="http://www.w3.org/1999/xlink" xmlns:avocode="https://avocode.com/" viewBox="0 0 19 19"><defs></defs><desc>Generated with Avocode.</desc><g><g><title>instagram</title><path d="M9.50001,6.16015c1.84159,0 3.33984,1.49826 3.33984,3.33981c-0.1828,4.42949 -6.49622,4.43079 -6.67969,0.00004c0,-1.84159 1.49825,-3.33984 3.33984,-3.33984zM14.32422,9.50004c-0.264,-6.39818 -9.38348,-6.40003 -9.64844,-0.00004c0,2.66011 2.16411,4.82422 4.82422,4.82422c2.66011,0 4.82422,-2.16411 4.82422,-4.82418zM14.73242,3.33984c-0.51237,0 -0.92773,0.41537 -0.92773,0.92773c0,0.51237 0.41537,0.92773 0.92773,0.92773c0.51237,0 0.92774,-0.41536 0.92774,-0.92773c0,-0.51237 -0.41537,-0.92773 -0.92774,-0.92773zM14.54688,1.48438c1.63697,0 2.96875,1.33178 2.96875,2.96875v10.09375c0,1.63697 -1.33178,2.96875 -2.96875,2.96875h-10.09375c-1.63697,0 -2.96875,-1.33178 -2.96875,-2.96875v-10.09375c0,-1.63697 1.33178,-2.96875 2.96875,-2.96875zM14.5469,19.00002c2.45545,0 4.45312,-1.99768 4.45312,-4.45313v-10.09375c0,-2.45546 -1.99768,-4.45313 -4.45313,-4.45313h-10.09375c-2.45546,0 -4.45313,1.99767 -4.45313,4.45312v10.09375c0,2.45545 1.99767,4.45312 4.45312,4.45312h10.09375z" fill="#95989a" fill-opacity="1"></path></g></g></svg>