<?xml version="1.0" encoding="UTF-8"?>
<svg id="SVGDoc" width="25" height="17" xmlns="http://www.w3.org/2000/svg" version="1.1" xmlns:xlink="http://www.w3.org/1999/xlink" xmlns:avocode="https://avocode.com/" viewBox="0 0 25 17"><defs></defs><desc>Generated with Avocode.</desc><g><g clip-path="url(#clip-6e84d471-95bc-4b58-be74-619a25c55548)"><title>youtube</title><path d="M9.96504,12.33996v-7.39985l6.42403,3.69992zM24.25649,2.70392c-0.2844,-1.05731 -1.11802,-1.89078 -2.17519,-2.17549c-1.93131,-0.52843 -9.65668,-0.52843 -9.65668,-0.52843c0,0 -7.72507,0 -9.65638,0.5084c-1.03683,0.2844 -1.89078,1.13836 -2.17519,2.19552c-0.50825,1.93115 -0.50825,5.93612 -0.50825,5.93612c0,0 0,4.02515 0.50825,5.93612c0.2847,1.05716 1.11802,1.89063 2.17534,2.17533c1.95149,0.52858 9.65653,0.52858 9.65653,0.52858c0,0 7.72507,0 9.65638,-0.5084c1.05731,-0.28455 1.89078,-1.11802 2.17549,-2.17518c0.50809,-1.93131 0.50809,-5.93612 0.50809,-5.93612c0,0 0.02033,-4.0253 -0.50839,-5.95645z" fill="#95989a" fill-opacity="1"></path></g></g></svg>